<svg xmlns="http://www.w3.org/2000/svg" viewBox="0 0 800 600" width="100%" height="100%" style="background:#090d16; font-family:system-ui, -apple-system, sans-serif;">
  <defs>
    <filter id="glow-primary" x="-20%" y="-20%" width="140%" height="140%">
      <feGaussianBlur stdDeviation="6" result="blur" />
      <feMerge><feMergeNode in="blur" /><feMergeNode in="SourceGraphic" /></feMerge>
    </filter>
    <filter id="glow-synergist" x="-20%" y="-20%" width="140%" height="140%">
      <feGaussianBlur stdDeviation="4" result="blur" />
      <feMerge><feMergeNode in="blur" /><feMergeNode in="SourceGraphic" /></feMerge>
    </filter>
    <linearGradient id="primary-grad" x1="0%" y1="0%" x2="100%" y2="100%">
      <stop offset="0%" stop-color="#38bdf8" /><stop offset="60%" stop-color="#0284c7" /><stop offset="100%" stop-color="#0369a1" />
    </linearGradient>
    <linearGradient id="synergist-grad" x1="0%" y1="0%" x2="100%" y2="100%">
      <stop offset="0%" stop-color="#f59e0b" /><stop offset="100%" stop-color="#d97706" />
    </linearGradient>
  </defs>

  <!-- Title Badge -->
  <g transform="translate(30, 30)">
    <rect width="440" height="44" rx="8" fill="#0f172a" stroke="#1e293b" stroke-width="1.5"/>
    <circle cx="20" cy="22" r="6" fill="#38bdf8" filter="url(#glow-primary)"/>
    <text x="36" y="27" fill="#f8fafc" font-size="14" font-weight="800" letter-spacing="0.5">LAT PULLDOWN (WIDE GRIP)</text>
    <text x="340" y="27" fill="#38bdf8" font-size="11" font-weight="700">LATISSIMUS DORSI OUTER FLARE</text>
  </g>

  <!-- Floor / Prop Base Line -->
  <line x1="80" y1="540" x2="720" y2="540" stroke="#334155" stroke-width="4" stroke-linecap="round"/>

  <!-- Base Anatomy Body -->
  <g fill="#1e293b" stroke="#334155" stroke-width="2">
    <circle cx="340" cy="220" r="26" fill="#334155"/>
           <path d="M 320 250 L 360 250 L 350 410 L 310 410 Z"/>
           <path d="M 310 250 L 270 140 M 370 250 L 410 140" stroke="#475569" stroke-width="18" stroke-linecap="round"/>
           <line x1="220" y1="130" x2="460" y2="130" stroke="#64748b" stroke-width="12" stroke-linecap="round"/>
           <rect x="290" y="410" width="80" height="90" rx="4" fill="#1e293b" stroke="#334155" stroke-width="2"/>
  </g>

  <!-- Secondary / Synergist Muscles (Glowing Amber) -->
  <g filter="url(#glow-synergist)">
    <circle cx="280" cy="190" r="12" fill="url(#synergist-grad)"/><circle cx="400" cy="190" r="12" fill="url(#synergist-grad)"/>
  </g>

  <!-- Primary Target Muscles (Glowing Cyan/Teal) -->
  <g filter="url(#glow-primary)">
    <path d="M 315 260 Q 275 320 310 390 Q 330 330 325 270 Z" fill="url(#primary-grad)" stroke="#7dd3fc" stroke-width="2"/>
              <path d="M 365 260 Q 405 320 370 390 Q 350 330 355 270 Z" fill="url(#primary-grad)" stroke="#7dd3fc" stroke-width="2"/>
  </g>

  <!-- Kinesiology Callout Card -->
  <g transform="translate(480, 100)">
    <rect width="290" height="106" rx="8" fill="#0f172a" stroke="#38bdf8" stroke-width="1.5"/>
    <text x="14" y="24" fill="#38bdf8" font-size="11" font-weight="800">TARGET: LATISSIMUS DORSI & TERES MAJOR</text>
    <text x="14" y="46" fill="#f8fafc" font-size="11" font-weight="600">• Lean back 10-15° with proud chest</text>
    <text x="14" y="65" fill="#f8fafc" font-size="11" font-weight="600">• Drive elbows into back pockets</text>
    <text x="14" y="84" fill="#f8fafc" font-size="11" font-weight="600">• Full overhead stretch at top</text>
  </g>
</svg>